# xmcd CD database file
#
# Track frame offsets:
#	150
#	17233
#	36738
#	55682
#	69682
#	87572
#	104240
#	122709
#	139615
#	158771
#	177603
#	194486
#	210467
#	229690
#	247271
#	265729
#	282843
#	299683
#	319324
#	335625
#
# Disc length: 4694 seconds
#
# Revision: 2
# Processed by: cddbd v1.5.2PL0 Copyright (c) Steve Scherf et al.
# Submitted via: CDex 1.51
#
DISCID=4a125414
DTITLE=Various Artist - ZM-80's-BS-CD-2
DYEAR=1900
DGENRE=Blues
TTITLE0=Specials The - Ghost Town
TTITLE1=K C And The Sunshine Band - Give It Up
TTITLE2=Laura Branigan - Gloria
TTITLE3=Jam The - Going Underground
TTITLE4=Spandau Ballet - Gold
TTITLE5=Stranglers The - Golden Brown
TTITLE6=George Harrison - Got My Mind Set On You
TTITLE7=Donna Summer - I Don't Wanna Get Hurt
TTITLE8=Hot Chocolate - It Started With A Kiss
TTITLE9=Charlene - I've Never Been To Me
TTITLE10=Marillion - Kayleigh
TTITLE11=Kim Wilde - Kids In America
TTITLE12=Chris De Burgh - Lady In Red
TTITLE13=Deniece Williams - Let's Hear It For The Boy
TTITLE14=Proclaimers The - Letter From America
TTITLE15=Fleetwood Mac - Little Lies
TTITLE16=Blancmange - Living On The Ceiling
TTITLE17=Four Tops The - Loco In Acapulco
TTITLE18=King - Love And Pride
TTITLE19=Toni Basil - Mickey
EXTD=
EXTT0=
EXTT1=
EXTT2=
EXTT3=
EXTT4=
EXTT5=
EXTT6=
EXTT7=
EXTT8=
EXTT9=
EXTT10=
EXTT11=
EXTT12=
EXTT13=
EXTT14=
EXTT15=
EXTT16=
EXTT17=
EXTT18=
EXTT19=
PLAYORDER=
